<?xml version="1.0" encoding="UTF-8" standalone="no"?>
<!-- Created with Inkscape (http://www.inkscape.org/) -->

<svg
   width="175"
   height="72"
   viewBox="0 0 175 72"
   version="1.1"
   id="svg1"
   inkscape:version="1.4.2 (ebf0e940d0, 2025-05-08)"
   sodipodi:docname="rebble-appstore-logo.svg"
   xmlns:inkscape="http://www.inkscape.org/namespaces/inkscape"
   xmlns:sodipodi="http://sodipodi.sourceforge.net/DTD/sodipodi-0.dtd"
   xmlns="http://www.w3.org/2000/svg"
   xmlns:svg="http://www.w3.org/2000/svg">
  <sodipodi:namedview
     id="namedview1"
     pagecolor="#ffffff"
     bordercolor="#666666"
     borderopacity="1.0"
     inkscape:showpageshadow="2"
     inkscape:pageopacity="0.0"
     inkscape:pagecheckerboard="0"
     inkscape:deskcolor="#d1d1d1"
     inkscape:document-units="px"
     inkscape:zoom="3.6168253"
     inkscape:cx="99.811291"
     inkscape:cy="45.620119"
     inkscape:window-width="1920"
     inkscape:window-height="1011"
     inkscape:window-x="0"
     inkscape:window-y="0"
     inkscape:window-maximized="1"
     inkscape:current-layer="layer1" />
  <defs
     id="defs1" />
  <g
     inkscape:label="Layer 1"
     inkscape:groupmode="layer"
     id="layer1">
    <g
       id="rebble-logo"
       transform="translate(-576.9999,-418.50004)">
      <path
   d="m 614.0456,444.25133 -12.2698,7.59374 -7.2512,-4.69333 -2.4434,3.7705 9.6418,6.24036 14.6863,-9.08774 z"
   fill="#ff4700"
   id="hands"
   style="fill:#f9a285;fill-opacity:1" />

      <path
   d="m 586,418.5001 v 16.92786 c -0.6048,0.50036 -1.1856,1.02746 -1.7403,1.58203 l -5.0097,-5.00973 v 13.49999 h 13.4999 l -5.3349,-5.33497 c 3.6613,-3.66115 8.7288,-5.91525 14.3347,-5.91525 11.2106,0 20.25,9.03937 20.25,20.24998 0,2.36987 -0.4083,4.63905 -1.1514,6.75 h 4.7109 c 0.6104,-2.14779 0.9405,-4.40972 0.9405,-6.75 0,-7.66574 -3.507,-14.52823 -9,-19.07211 v -16.92786 z m 4.4999,4.5 h 22.5 v 9.45674 c -3.3776,-1.73177 -7.2022,-2.70703 -11.25,-2.70703 -4.0483,0 -7.8727,0.97492 -11.25,2.70703 z m -12.5684,24.74998 c -0.6091,2.14559 -0.9316,4.41241 -0.9316,6.74999 0,7.66574 3.5069,14.52824 8.9999,19.07211 v 16.92786 h 31.5 v -16.92786 c 0.6048,-0.50057 1.1856,-1.02713 1.7403,-1.58203 l 5.0097,5.00979 v -13.49999 h -13.5 l 5.3262,5.32614 c -3.6603,3.66215 -8.721,5.92368 -14.3263,5.92368 -11.2106,0 -20.25,-9.03937 -20.25,-20.24998 0,-2.36711 0.4012,-4.64113 1.1426,-6.75 z m 12.5684,28.79322 c 3.3776,1.73177 7.2023,2.70703 11.25,2.70703 4.0478,0 7.8728,-0.9752 11.25,-2.70703 v 9.45675 h -22.5 z"
   id="watch-body"
   fill="#ffffff" />

    </g>
    <path
       d="m 70.632099,30.329962 v 10.17 h -4.842 v -26.028 h 7.938 q 2.664,0 4.554,0.558 1.908,0.54 3.114,1.53 1.224,0.99 1.782,2.376 0.576,1.368 0.576,3.024 0,1.314 -0.396,2.484 -0.378,1.17 -1.116,2.124 -0.72,0.954 -1.8,1.674 -1.062,0.72 -2.43,1.152 0.918,0.522 1.584,1.494 l 6.516,9.612 h -4.356 q -0.63,0 -1.08,-0.252 -0.432,-0.252 -0.738,-0.72 l -5.472,-8.334 q -0.306,-0.468 -0.684,-0.666 -0.36,-0.198 -1.08,-0.198 z m 0,-3.474 h 3.024 q 1.368,0 2.376,-0.342 1.026,-0.342 1.674,-0.936 0.666,-0.612 0.99,-1.44 0.324,-0.828 0.324,-1.818 0,-1.98 -1.314,-3.042 -1.296,-1.062 -3.978,-1.062 h -3.096 z m 25.956025,-5.112 q 1.746,0 3.204,0.558 1.475996,0.558 2.537996,1.638 1.062,1.062 1.656,2.628 0.594,1.548 0.594,3.546 0,0.504 -0.054,0.846 -0.036,0.324 -0.162,0.522 -0.108,0.18 -0.306,0.27 -0.198,0.072 -0.504,0.072 H 92.142124 q 0.198,2.844 1.53,4.176 1.332,1.332 3.528,1.332 1.08,0 1.854,-0.252 0.792,-0.252 1.367996,-0.558 0.594,-0.306 1.026,-0.558 0.45,-0.252 0.864,-0.252 0.27,0 0.468,0.108 0.198,0.108 0.342,0.306 l 1.296,1.62 q -0.738,0.864 -1.656,1.458 -0.918,0.576 -1.926,0.936 -0.989996,0.342 -2.033996,0.486 -1.026,0.144 -1.998,0.144 -1.926,0 -3.582,-0.63 -1.656,-0.648 -2.88,-1.89 -1.224,-1.26 -1.926,-3.096 -0.702,-1.854 -0.702,-4.284 0,-1.89 0.612,-3.546 0.612,-1.674 1.746,-2.898 1.152,-1.242 2.79,-1.962 1.656,-0.72 3.726,-0.72 z m 0.09,3.186 q -1.944,0 -3.042,1.098 -1.098,1.098 -1.404,3.114 h 8.351996 q 0,-0.864 -0.234,-1.62 -0.234,-0.774 -0.719996,-1.35 -0.486,-0.576 -1.224,-0.9 -0.738,-0.342 -1.728,-0.342 z m 11.574006,15.57 v -26.748 h 4.446 v 10.548 q 1.098,-1.17 2.484,-1.854 1.386,-0.702 3.24,-0.702 1.512,0 2.754,0.63 1.26,0.612 2.16,1.8 0.918,1.188 1.404,2.934 0.504,1.746 0.504,4.014 0,2.07 -0.558,3.834 -0.558,1.764 -1.602,3.06 -1.026,1.296 -2.502,2.034 -1.458,0.72 -3.276,0.72 -0.846,0 -1.548,-0.18 -0.702,-0.162 -1.278,-0.468 -0.576,-0.306 -1.08,-0.738 -0.486,-0.45 -0.936,-0.99 l -0.198,1.242 q -0.108,0.468 -0.378,0.666 -0.252,0.198 -0.702,0.198 z m 8.64,-15.3 q -1.386,0 -2.376,0.594 -0.972,0.576 -1.818,1.638 v 8.28 q 0.756,0.936 1.638,1.314 0.9,0.36 1.944,0.36 1.008,0 1.818,-0.378 0.81,-0.378 1.368,-1.152 0.576,-0.774 0.882,-1.944 0.306,-1.188 0.306,-2.79 0,-1.62 -0.27,-2.736 -0.252,-1.134 -0.738,-1.836 -0.486,-0.702 -1.188,-1.026 -0.684,-0.324 -1.566,-0.324 z m 11.87999,15.3 v -26.748 h 4.446 v 10.548 q 1.098,-1.17 2.484,-1.854 1.386,-0.702 3.24,-0.702 1.512,0 2.754,0.63 1.26,0.612 2.16,1.8 0.918,1.188 1.404,2.934 0.504,1.746 0.504,4.014 0,2.07 -0.558,3.834 -0.558,1.764 -1.602,3.06 -1.026,1.296 -2.502,2.034 -1.458,0.72 -3.276,0.72 -0.846,0 -1.548,-0.18 -0.702,-0.162 -1.278,-0.468 -0.576,-0.306 -1.08,-0.738 -0.486,-0.45 -0.936,-0.99 l -0.198,1.242 q -0.108,0.468 -0.378,0.666 -0.252,0.198 -0.702,0.198 z m 8.64,-15.3 q -1.386,0 -2.376,0.594 -0.972,0.576 -1.818,1.638 v 8.28 q 0.756,0.936 1.638,1.314 0.9,0.36 1.944,0.36 1.008,0 1.818,-0.378 0.81,-0.378 1.368,-1.152 0.576,-0.774 0.882,-1.944 0.306,-1.188 0.306,-2.79 0,-1.62 -0.27,-2.736 -0.252,-1.134 -0.738,-1.836 -0.486,-0.702 -1.188,-1.026 -0.684,-0.324 -1.566,-0.324 z m 16.55999,-11.448 v 26.748 h -4.446 v -26.748 z m 12.65399,7.992 q 1.746,0 3.204,0.558 1.476,0.558 2.538,1.638 1.062,1.062 1.656,2.628 0.594,1.548 0.594,3.546 0,0.504 -0.054,0.846 -0.036,0.324 -0.162,0.522 -0.108,0.18 -0.306,0.27 -0.198,0.072 -0.504,0.072 h -11.412 q 0.198,2.844 1.53,4.176 1.332,1.332 3.528,1.332 1.08,0 1.854,-0.252 0.792,-0.252 1.368,-0.558 0.594,-0.306 1.026,-0.558 0.45,-0.252 0.864,-0.252 0.27,0 0.468,0.108 0.198,0.108 0.342,0.306 l 1.296,1.62 q -0.738,0.864 -1.656,1.458 -0.918,0.576 -1.926,0.936 -0.99,0.342 -2.034,0.486 -1.026,0.144 -1.998,0.144 -1.926,0 -3.582,-0.63 -1.656,-0.648 -2.88,-1.89 -1.224,-1.26 -1.926,-3.096 -0.702,-1.854 -0.702,-4.284 0,-1.89 0.612,-3.546 0.612,-1.674 1.746,-2.898 1.152,-1.242 2.79,-1.962 1.656,-0.72 3.726,-0.72 z m 0.09,3.186 q -1.944,0 -3.042,1.098 -1.098,1.098 -1.404,3.114 h 8.352 q 0,-0.864 -0.234,-1.62 -0.234,-0.774 -0.72,-1.35 -0.486,-0.576 -1.224,-0.9 -0.738,-0.342 -1.728,-0.342 z"
       id="rebble"
       style="font-weight:bold;font-size:36px;line-height:1.25;font-family:Lato;fill:#ffffff"
       aria-label="Rebble" />
    <path
       d="m 73.680099,60.499962 h -0.948 q -0.312,0 -0.504,-0.096 -0.192,-0.096 -0.252,-0.408 l -0.24,-1.128 q -0.48,0.432 -0.936,0.78 -0.456,0.336 -0.96,0.576 -0.504,0.228 -1.08,0.348 -0.564,0.12 -1.26,0.12 -0.708,0 -1.332,-0.192 -0.612,-0.204 -1.068,-0.6 -0.456,-0.396 -0.732,-0.996 -0.264,-0.612 -0.264,-1.44 0,-0.72 0.396,-1.38 0.396,-0.672 1.272,-1.188 0.888,-0.516 2.316,-0.84 1.428,-0.336 3.492,-0.384 v -0.948 q 0,-1.416 -0.612,-2.136 -0.6,-0.732 -1.788,-0.732 -0.78,0 -1.32,0.204 -0.528,0.192 -0.924,0.444 -0.384,0.24 -0.672,0.444 -0.276,0.192 -0.552,0.192 -0.216,0 -0.384,-0.108 -0.156,-0.12 -0.252,-0.288 l -0.384,-0.684 q 1.008,-0.972 2.172,-1.452 1.164,-0.48 2.58,-0.48 1.02,0 1.812,0.336 0.792,0.336 1.332,0.936 0.54,0.6 0.816,1.452 0.276,0.852 0.276,1.872 z m -5.544,-1.308 q 0.564,0 1.032,-0.108 0.468,-0.12 0.876,-0.324 0.42,-0.216 0.792,-0.516 0.384,-0.3 0.744,-0.684 v -2.532 q -1.476,0.048 -2.508,0.24 -1.032,0.18 -1.68,0.48 -0.648,0.3 -0.948,0.708 -0.288,0.408 -0.288,0.912 0,0.48 0.156,0.828 0.156,0.348 0.42,0.576 0.264,0.216 0.624,0.324 0.36,0.096 0.78,0.096 z m 8.783999,5.424 v -16.272 h 1.272 q 0.456,0 0.576,0.444 l 0.18,1.44 q 0.78,-0.948 1.776,-1.524 1.008,-0.576 2.316,-0.576 1.044,0 1.896,0.408 0.852,0.396 1.452,1.188 0.6,0.78 0.924,1.944 0.324,1.164 0.324,2.676 0,1.344 -0.36,2.508 -0.36,1.152 -1.032,2.004 -0.672,0.84 -1.656,1.332 -0.972,0.48 -2.196,0.48 -1.128,0 -1.932,-0.372 -0.792,-0.372 -1.404,-1.056 v 5.376 z m 5.412,-14.76 q -1.044,0 -1.836,0.48 -0.78,0.48 -1.44,1.356 v 5.88 q 0.588,0.792 1.284,1.116 0.708,0.324 1.572,0.324 1.692,0 2.604,-1.212 0.912,-1.212 0.912,-3.456 0,-1.188 -0.216,-2.04 -0.204,-0.852 -0.6,-1.392 -0.396,-0.552 -0.972,-0.804 -0.576,-0.252 -1.308,-0.252 z m 7.836002,14.76 v -16.272 h 1.272 q 0.456,0 0.576,0.444 l 0.18,1.44 q 0.78,-0.948 1.776,-1.524 1.008,-0.576 2.316,-0.576 1.044,0 1.896,0.408 0.852,0.396 1.452,1.188 0.6,0.78 0.924,1.944 0.324,1.164 0.324,2.676 0,1.344 -0.36,2.508 -0.36,1.152 -1.032,2.004 -0.672,0.84 -1.656,1.332 -0.972,0.48 -2.196,0.48 -1.128,0 -1.932,-0.372 -0.792,-0.372 -1.404,-1.056 v 5.376 z m 5.412,-14.76 q -1.044,0 -1.836,0.48 -0.78,0.48 -1.44,1.356 v 5.88 q 0.588,0.792 1.284,1.116 0.708,0.324 1.572,0.324 1.692,0 2.604,-1.212 0.912,-1.212 0.912,-3.456 0,-1.188 -0.216,-2.04 -0.204,-0.852 -0.6,-1.392 -0.396,-0.552 -0.972,-0.804 -0.576,-0.252 -1.308,-0.252 z m 14.796,0.492 q -0.144,0.264 -0.444,0.264 -0.18,0 -0.408,-0.132 -0.228,-0.132 -0.564,-0.288 -0.324,-0.168 -0.78,-0.3 -0.456,-0.144 -1.08,-0.144 -0.54,0 -0.972,0.144 -0.432,0.132 -0.744,0.372 -0.3,0.24 -0.468,0.564 -0.156,0.312 -0.156,0.684 0,0.468 0.264,0.78 0.276,0.312 0.72,0.54 0.444,0.228 1.008,0.408 0.564,0.168 1.152,0.372 0.6,0.192 1.164,0.432 0.564,0.24 1.008,0.6 0.444,0.36 0.708,0.888 0.276,0.516 0.276,1.248 0,0.84 -0.3,1.56 -0.3,0.708 -0.888,1.236 -0.588,0.516 -1.44,0.816 -0.852,0.3 -1.968,0.3 -1.272,0 -2.304,-0.408 -1.032,-0.42 -1.752,-1.068 l 0.504,-0.816 q 0.096,-0.156 0.228,-0.24 0.132,-0.084 0.348,-0.084 0.216,0 0.456,0.168 0.24,0.168 0.576,0.372 0.348,0.204 0.828,0.372 0.492,0.168 1.224,0.168 0.624,0 1.092,-0.156 0.468,-0.168 0.78,-0.444 0.312,-0.276 0.456,-0.636 0.156,-0.36 0.156,-0.768 0,-0.504 -0.276,-0.828 -0.264,-0.336 -0.708,-0.564 -0.444,-0.24 -1.02,-0.408 -0.564,-0.18 -1.164,-0.372 -0.588,-0.192 -1.164,-0.432 -0.564,-0.252 -1.008,-0.624 -0.444,-0.372 -0.72,-0.912 -0.264,-0.552 -0.264,-1.332 0,-0.696 0.288,-1.332 0.288,-0.648 0.84,-1.128 0.552,-0.492 1.356,-0.78 0.804,-0.288 1.836,-0.288 1.2,0 2.148,0.384 0.96,0.372 1.656,1.032 z m 7.14,10.344 q -1.44,0 -2.22,-0.804 -0.768,-0.804 -0.768,-2.316 v -7.44 h -1.464 q -0.192,0 -0.324,-0.108 -0.132,-0.12 -0.132,-0.36 v -0.852 l 1.992,-0.252 0.492,-3.756 q 0.024,-0.18 0.156,-0.288 0.132,-0.12 0.336,-0.12 h 1.08 v 4.188 h 3.48 v 1.548 h -3.48 v 7.296 q 0,0.768 0.372,1.14 0.372,0.372 0.96,0.372 0.336,0 0.576,-0.084 0.252,-0.096 0.432,-0.204 0.18,-0.108 0.3,-0.192 0.132,-0.096 0.228,-0.096 0.168,0 0.3,0.204 l 0.624,1.02 q -0.552,0.516 -1.332,0.816 -0.78,0.288 -1.608,0.288 z m 10.18798,-12.54 q 1.332,0 2.4,0.444 1.08,0.444 1.824,1.26 0.756,0.816 1.152,1.98 0.408,1.152 0.408,2.58 0,1.44 -0.408,2.592 -0.396,1.152 -1.152,1.968 -0.744,0.816 -1.824,1.26 -1.068,0.432 -2.4,0.432 -1.332,0 -2.412,-0.432 -1.068,-0.444 -1.824,-1.26 -0.756,-0.816 -1.164,-1.968 -0.408,-1.152 -0.408,-2.592 0,-1.428 0.408,-2.58 0.408,-1.164 1.164,-1.98 0.756,-0.816 1.824,-1.26 1.08,-0.444 2.412,-0.444 z m 0,10.848 q 1.8,0 2.688,-1.2 0.888,-1.212 0.888,-3.372 0,-2.172 -0.888,-3.384 -0.888,-1.212 -2.688,-1.212 -0.912,0 -1.584,0.312 -0.672,0.312 -1.128,0.9 -0.444,0.588 -0.672,1.452 -0.216,0.852 -0.216,1.932 0,1.08 0.216,1.932 0.228,0.852 0.672,1.44 0.456,0.576 1.128,0.888 0.672,0.312 1.584,0.312 z m 8.424,1.5 v -12.156 h 1.224 q 0.348,0 0.48,0.132 0.132,0.132 0.18,0.456 l 0.144,1.896 q 0.624,-1.272 1.536,-1.98 0.924,-0.72 2.16,-0.72 0.504,0 0.912,0.12 0.408,0.108 0.756,0.312 l -0.276,1.596 q -0.084,0.3 -0.372,0.3 -0.168,0 -0.516,-0.108 -0.348,-0.12 -0.972,-0.12 -1.116,0 -1.872,0.648 -0.744,0.648 -1.248,1.884 v 7.74 z m 14.48399,-12.348 q 1.092,0 2.016,0.372 0.924,0.36 1.596,1.056 0.672,0.684 1.044,1.704 0.384,1.008 0.384,2.304 0,0.504 -0.108,0.672 -0.108,0.168 -0.408,0.168 h -8.088 q 0.024,1.152 0.312,2.004 0.288,0.852 0.792,1.428 0.504,0.564 1.2,0.852 0.696,0.276 1.56,0.276 0.804,0 1.38,-0.18 0.588,-0.192 1.008,-0.408 0.42,-0.216 0.696,-0.396 0.288,-0.192 0.492,-0.192 0.264,0 0.408,0.204 l 0.6,0.78 q -0.396,0.48 -0.948,0.84 -0.552,0.348 -1.188,0.576 -0.624,0.228 -1.296,0.336 -0.672,0.12 -1.332,0.12 -1.26,0 -2.328,-0.42 -1.056,-0.432 -1.836,-1.248 -0.768,-0.828 -1.2,-2.04 -0.432,-1.212 -0.432,-2.784 0,-1.272 0.384,-2.376 0.396,-1.104 1.128,-1.908 0.732,-0.816 1.788,-1.272 1.056,-0.468 2.376,-0.468 z m 0.048,1.572 q -1.548,0 -2.436,0.9 -0.888,0.888 -1.104,2.472 h 6.612 q 0,-0.744 -0.204,-1.356 -0.204,-0.624 -0.6,-1.068 -0.396,-0.456 -0.972,-0.696 -0.564,-0.252 -1.296,-0.252 z"
       id="appstore"
       style="font-size:24px;line-height:1.25;font-family:Lato;fill:#f9a285"
       aria-label="appstore" />
  </g>
</svg>
